<?xml version="1.0" standalone="no"?>
<!DOCTYPE svg PUBLIC "-//W3C//DTD SVG 20010904//EN"
 "http://www.w3.org/TR/2001/REC-SVG-20010904/DTD/svg10.dtd">
<svg version="1.0" xmlns="http://www.w3.org/2000/svg"
 width="260.000000pt" height="260.000000pt" viewBox="0 0 260.000000 260.000000"
 preserveAspectRatio="xMidYMid meet">
<metadata>
Created by potrace 1.11, written by Peter Selinger 2001-2013
</metadata>
<g transform="translate(0.000000,260.000000) scale(0.100000,-0.100000)"
fill="#000000" stroke="none">
<path d="M1465 2451 c-6 -19 -8 -19 -21 -6 -20 20 -30 19 -14 0 11 -13 10 -14
-5 -9 -14 6 -16 4 -10 -6 5 -9 4 -11 -4 -6 -6 4 -9 12 -6 17 4 5 2 9 -4 9 -5
0 -11 -5 -13 -12 -3 -7 -10 -8 -17 -4 -11 7 -11 10 0 17 10 6 7 8 -8 6 -22 -1
-22 -2 -6 -27 12 -18 12 -22 2 -13 -8 6 -28 10 -45 9 -25 -2 -31 1 -26 14 3 8
2 12 -3 8 -4 -4 -14 -3 -22 4 -8 6 -13 7 -12 2 4 -21 -2 -28 -11 -14 -8 12
-10 12 -10 1 0 -11 -3 -11 -17 0 -15 13 -15 12 -5 -8 15 -27 15 -45 1 -20 -9
15 -13 16 -27 5 -14 -11 -15 -10 -8 7 7 18 5 18 -14 -2 -23 -25 -36 -31 -23
-10 11 18 13 38 2 31 -5 -3 -7 -9 -4 -14 3 -4 -3 -11 -13 -15 -31 -14 -52 -15
-53 -2 0 6 -4 3 -9 -8 -5 -11 -9 -14 -9 -7 -1 6 -8 12 -16 12 -8 0 -15 -6 -15
-12 0 -8 -3 -9 -8 -3 -4 6 -13 11 -21 13 -12 3 -12 1 0 -14 8 -10 9 -15 2 -11
-14 8 -63 -12 -63 -26 0 -6 -5 -6 -12 0 -19 14 -50 24 -44 14 9 -14 -20 -21
-34 -8 -10 9 -11 9 -5 -2 6 -11 3 -13 -13 -9 -12 4 -20 2 -16 -3 3 -5 0 -9 -6
-9 -7 0 -9 -7 -6 -16 6 -15 4 -15 -11 -3 -15 12 -16 12 -10 -4 4 -11 3 -16 -3
-12 -6 3 -13 -1 -16 -9 -3 -9 -10 -13 -16 -10 -12 8 -37 -26 -31 -43 3 -7 10
-10 16 -6 6 3 7 1 3 -5 -3 -6 -16 -9 -28 -7 l-21 4 21 -19 c19 -18 20 -22 7
-47 -10 -19 -11 -29 -3 -34 7 -4 4 -9 -8 -12 -18 -4 -18 -5 0 -6 19 -1 19 -1
1 -14 -14 -11 -15 -16 -5 -22 9 -5 11 -4 6 3 -4 7 -2 12 4 12 7 0 10 -6 7 -14
-3 -7 0 -19 6 -26 10 -10 8 -10 -9 -2 -16 9 -21 8 -21 -4 0 -7 7 -14 16 -15
12 0 11 -3 -4 -9 -17 -7 -17 -9 -2 -9 9 -1 17 -6 17 -12 0 -5 -6 -7 -12 -3 -7
4 -4 -3 7 -16 l20 -23 -22 11 c-17 10 -21 9 -19 -3 1 -8 6 -18 11 -22 4 -5 5
-1 0 7 -5 8 -4 12 0 7 5 -4 10 -18 11 -30 2 -12 0 -16 -2 -9 -9 20 -23 14 -17
-8 3 -11 8 -18 12 -16 9 6 5 -34 -6 -64 -8 -19 -6 -31 5 -50 l16 -25 -24 20
c-14 11 -20 13 -14 5 15 -21 15 -63 1 -73 -8 -6 -6 -7 5 -3 11 3 17 1 15 -7
-1 -7 4 -11 11 -9 8 1 11 -2 7 -8 -5 -8 -11 -8 -20 0 -10 8 -15 8 -21 -1 -4
-8 -3 -9 4 -5 7 4 12 1 12 -9 0 -10 5 -14 13 -9 10 6 10 4 0 -7 -7 -7 -13 -21
-13 -31 0 -10 -3 -17 -7 -17 -20 3 -33 -2 -33 -12 0 -8 4 -8 14 0 10 8 16 9
21 1 3 -5 5 -11 3 -11 -11 -5 -106 -3 -103 1 2 3 -5 11 -15 18 -12 7 -21 8
-25 2 -4 -6 -17 -8 -31 -6 -17 3 -24 0 -24 -12 0 -13 -3 -13 -16 4 -8 10 -13
13 -9 7 3 -7 1 -13 -4 -13 -6 0 -11 3 -11 8 0 4 -20 7 -44 7 -24 0 -42 -3 -39
-8 2 -4 8 -5 13 -2 5 3 11 2 14 -3 7 -11 -51 -8 -61 3 -5 4 -1 4 7 0 13 -8 13
-7 1 8 -14 18 -22 22 -20 10 3 -21 -2 -24 -18 -12 -15 13 -15 12 -5 -8 8 -15
9 -24 2 -28 -6 -4 -9 -3 -8 2 2 4 -1 9 -6 10 -5 1 -13 7 -17 15 -7 10 -9 10
-9 0 0 -7 -5 -10 -12 -6 -7 4 -8 3 -4 -5 4 -6 11 -9 16 -6 5 3 11 1 15 -4 3
-6 -3 -8 -15 -6 -11 2 -24 -3 -29 -13 -5 -9 -13 -17 -18 -17 -4 0 -7 -3 -6 -7
4 -11 -21 -5 -29 7 -4 6 -8 -1 -8 -14 0 -16 -4 -21 -14 -18 -19 8 -34 -13 -30
-40 3 -17 0 -21 -14 -17 -16 5 -16 5 1 -6 22 -14 22 -31 0 -23 -10 4 -14 2
-10 -4 4 -6 1 -14 -5 -16 -10 -4 -10 -6 -1 -6 7 -1 10 -8 7 -16 -4 -8 -1 -15
6 -15 6 0 8 5 5 10 -3 6 -2 10 4 10 5 0 9 -9 8 -19 -1 -13 -6 -17 -17 -13 -13
5 -13 4 0 -12 8 -10 15 -28 17 -39 2 -20 2 -20 -8 -4 -5 9 -15 17 -22 17 -9 0
-9 -2 0 -8 7 -4 11 -17 10 -29 0 -12 -5 -19 -9 -17 -4 3 -8 0 -8 -6 0 -7 -7
-5 -16 4 -20 20 -28 20 -20 0 4 -10 2 -13 -6 -8 -8 5 -9 2 -5 -10 4 -11 3 -15
-4 -10 -6 3 -8 18 -5 33 l6 26 -14 -24 c-10 -18 -15 -20 -19 -10 -3 9 -6 6 -6
-7 -1 -17 8 -24 41 -32 32 -8 46 -8 57 1 12 9 13 9 7 0 -5 -9 0 -13 14 -13 17
0 19 -3 11 -19 -12 -22 8 -36 28 -20 8 6 8 5 1 -3 -6 -7 -4 -16 8 -25 9 -8 12
-12 6 -9 -6 3 -11 -1 -11 -9 0 -8 4 -12 8 -9 4 2 13 -4 19 -13 9 -15 10 -15 4
6 -4 16 -3 21 5 17 6 -4 11 -13 11 -20 0 -8 13 -19 30 -26 16 -7 28 -16 25
-20 -5 -8 56 -2 64 6 2 2 12 -3 22 -12 13 -12 19 -12 25 -3 5 8 3 10 -6 4 -9
-5 -11 -4 -6 4 6 9 11 9 22 0 9 -7 19 -8 26 -3 16 11 39 11 56 0 7 -4 20 -2
29 6 12 9 15 9 9 0 -5 -8 0 -12 14 -12 14 0 19 4 14 13 -6 9 -4 9 7 1 16 -12
29 -12 48 0 9 6 12 5 8 -1 -4 -6 4 -11 18 -11 14 1 23 3 21 7 -3 4 4 7 14 7
10 0 17 -3 14 -7 -2 -4 3 -9 11 -13 8 -3 15 0 15 6 0 30 12 -6 15 -44 1 -24 1
-37 -2 -30 -8 20 -22 14 -16 -8 3 -11 8 -18 12 -16 9 6 5 -34 -6 -64 -8 -19
-6 -31 5 -50 l16 -25 -24 20 c-14 11 -20 13 -14 5 15 -21 15 -63 1 -73 -8 -6
-6 -7 6 -3 12 4 16 2 11 -6 -12 -20 -12 -68 1 -68 6 0 11 -10 12 -21 2 -21 1
-21 -13 -3 -14 18 -15 18 -5 -2 6 -12 8 -24 4 -27 -12 -13 -9 -53 6 -71 9 -11
11 -16 5 -13 -16 9 -27 -22 -14 -38 5 -6 6 -16 2 -20 -4 -5 -1 -5 6 -1 6 4 12
2 12 -4 0 -6 4 -9 8 -6 5 3 9 0 9 -7 0 -7 4 -21 9 -31 5 -14 4 -17 -4 -12 -8
5 -10 2 -6 -8 3 -9 9 -15 12 -14 25 3 34 -4 29 -23 -4 -16 -3 -18 8 -9 19 16
38 2 32 -21 -3 -11 -1 -17 3 -14 5 3 10 2 13 -2 2 -5 2 -2 0 6 -3 11 0 11 10
3 8 -7 17 -9 21 -5 4 4 5 -5 2 -20 -3 -16 -1 -25 5 -22 5 4 6 11 3 17 -5 7 -1
9 9 5 10 -4 20 0 26 11 6 9 11 13 11 8 0 -5 -7 -17 -16 -27 -12 -13 -12 -19
-3 -25 8 -4 10 -3 5 4 -6 11 6 16 27 13 4 0 7 5 7 11 0 9 4 8 10 -2 5 -8 10
-19 10 -25 0 -5 -5 -3 -10 5 -8 13 -10 13 -10 -2 0 -9 3 -19 8 -21 10 -7 32
19 24 29 -4 5 2 2 13 -7 11 -8 30 -14 42 -13 12 0 21 -2 18 -5 -2 -4 5 -12 15
-19 14 -9 21 -8 30 3 9 11 9 15 1 15 -6 0 -11 -5 -11 -11 0 -5 -5 -7 -11 -3
-8 5 -6 10 5 16 20 11 37 2 30 -16 -3 -7 1 -16 9 -19 8 -3 14 0 13 6 0 7 4 12
9 12 6 0 9 -3 7 -7 -1 -5 5 -8 14 -8 8 0 13 4 9 9 -3 5 -1 12 4 16 6 3 8 -3 6
-15 -2 -11 1 -23 7 -26 6 -4 8 -2 4 4 -3 6 -2 13 4 17 5 3 10 -1 10 -9 0 -9 5
-16 11 -16 5 0 7 6 3 13 -4 6 2 4 13 -6 16 -14 23 -15 29 -6 4 7 3 10 -3 6 -6
-4 -13 -1 -16 7 -4 10 0 12 15 8 11 -2 22 -11 25 -18 4 -10 11 -10 38 2 43 18
50 18 35 -1 -7 -8 -17 -12 -23 -8 -6 3 -7 1 -3 -6 5 -8 12 -8 27 3 23 16 62
10 52 -8 -4 -6 1 -5 10 3 19 15 23 26 5 15 -6 -4 -8 -3 -5 3 10 15 56 7 80
-14 11 -10 17 -12 13 -5 -4 7 -1 12 8 12 8 0 17 -6 20 -12 4 -7 5 -4 3 7 -3
16 1 21 19 21 22 0 29 -8 25 -30 -1 -5 4 -4 13 3 10 8 16 9 21 1 10 -16 25 -2
19 18 -3 9 2 6 11 -8 15 -23 16 -23 12 -3 -4 18 -1 21 20 17 18 -3 23 -1 17 8
-6 10 -4 10 7 2 8 -5 24 -9 37 -8 12 0 22 -3 22 -7 0 -5 7 -9 15 -9 8 0 15 5
15 11 0 5 -5 7 -12 3 -7 -4 -8 -3 -4 5 6 9 11 9 22 0 7 -6 11 -16 8 -21 -4 -6
2 -6 13 1 11 6 23 8 26 4 4 -3 11 6 16 21 11 27 20 35 17 13 0 -6 3 -13 8 -14
5 -1 13 -7 17 -15 7 -10 9 -10 9 0 0 7 5 10 12 6 6 -4 9 -3 5 2 -3 5 1 17 8
27 11 16 13 16 19 2 3 -9 2 -13 -4 -10 -6 3 -10 1 -10 -4 0 -14 17 -14 25 -1
4 6 12 8 18 4 7 -3 3 2 -7 10 -22 18 -14 21 14 6 22 -12 53 -3 43 14 -3 6 3 3
14 -7 20 -18 21 -18 19 0 -1 12 5 17 17 15 11 -2 26 5 34 15 8 10 12 13 9 7
-3 -7 0 -14 8 -17 10 -4 12 0 8 16 -5 20 -4 21 12 8 9 -8 19 -11 23 -7 3 3 0
6 -8 6 -12 0 -12 2 1 10 9 6 17 5 23 -3 6 -8 7 -5 4 9 -2 11 1 21 7 22 22 2
41 8 55 16 10 6 12 5 7 -2 -4 -7 -2 -12 5 -12 7 0 9 8 6 21 -5 20 -5 20 15 2
21 -18 21 -18 8 7 -7 14 -9 22 -5 18 5 -4 15 -2 23 5 13 9 14 9 8 0 -4 -8 -2
-13 5 -13 7 0 9 8 6 21 -5 17 -3 18 11 7 12 -10 14 -10 8 0 -4 7 -2 12 4 12 6
0 8 5 4 12 -5 7 -2 9 9 5 11 -4 15 -1 12 12 -2 12 2 18 12 17 9 0 18 5 21 13
3 9 0 11 -8 6 -8 -5 -11 -4 -6 3 4 6 14 8 24 5 14 -6 15 -4 4 9 -10 13 -9 15
11 13 21 -3 23 1 19 23 -3 17 -1 23 6 18 8 -5 10 -1 6 9 -5 11 -2 14 12 9 13
-3 11 -1 -4 8 l-23 14 27 12 c23 11 26 11 20 -3 -3 -10 -2 -14 5 -10 6 4 8 14
5 22 -4 9 -2 21 4 28 8 9 6 17 -5 29 -9 9 -13 16 -8 16 5 0 14 -5 19 -10 7 -7
11 -6 11 4 0 8 -4 13 -9 10 -4 -3 -8 4 -8 16 0 12 5 18 10 15 6 -3 10 -1 10 4
0 6 -5 11 -11 11 -5 0 -7 5 -4 10 4 6 10 8 15 5 5 -3 12 0 16 6 4 7 3 10 -2 7
-5 -3 -18 4 -29 15 l-20 20 23 -12 c12 -6 23 -10 23 -9 6 14 2 111 -4 115 -4
3 -2 12 5 21 10 12 10 14 1 8 -8 -4 -13 -2 -13 4 0 6 -4 9 -9 6 -4 -3 -8 2 -8
12 0 51 -3 63 -15 56 -9 -5 -9 -2 1 9 15 18 26 23 16 7 -10 -16 1 -12 15 6 11
12 11 15 -1 12 -8 -2 -15 7 -17 20 -2 12 -7 20 -12 17 -4 -3 -14 3 -21 12 -10
12 -10 14 -1 9 7 -4 12 -1 12 9 0 9 -4 14 -9 11 -12 -8 -21 30 -9 42 6 6 5 12
-3 17 -7 5 -10 4 -6 -2 4 -6 0 -16 -7 -22 -12 -10 -13 -8 -9 8 5 19 -3 25 -27
23 -3 0 -7 9 -7 20 -2 19 -1 19 11 3 10 -14 15 -15 21 -5 5 8 4 11 -2 7 -6 -4
-13 -1 -16 7 -4 9 -14 12 -25 9 -23 -5 -38 12 -21 23 8 4 9 3 5 -4 -5 -8 -1
-10 9 -5 23 8 -1 22 -29 16 -16 -4 -18 -3 -7 5 12 9 10 12 -12 17 -16 4 -30
17 -36 33 -6 18 -10 21 -10 10 -1 -10 -6 -18 -12 -18 -6 0 -8 9 -4 20 4 11 3
20 -2 19 -33 -6 -62 3 -68 21 -4 12 -11 17 -18 13 -9 -5 -9 -3 0 8 6 8 12 17
12 22 1 4 4 8 9 9 4 1 21 15 37 30 34 33 92 67 80 47 -5 -8 -4 -10 3 -5 7 4
12 16 12 27 0 10 7 19 15 19 8 0 15 5 15 11 0 5 5 7 10 4 6 -4 9 -1 8 7 -2 7
3 12 10 10 8 -1 11 2 7 8 -5 8 -11 7 -21 -1 -8 -6 -17 -9 -21 -6 -3 4 7 12 22
19 24 11 25 13 11 24 -15 11 -15 12 -1 18 9 3 13 2 10 -4 -3 -6 -1 -10 6 -10
7 0 10 11 7 32 -5 28 -4 29 9 13 18 -26 17 -5 -2 22 -14 20 -13 21 8 16 17 -5
20 -3 10 7 -6 7 -9 19 -6 28 5 11 3 13 -7 7 -9 -5 -11 -4 -6 4 6 9 11 9 21 1
11 -9 12 -7 8 11 -5 17 -3 20 7 14 9 -5 11 -4 6 4 -6 9 -11 9 -22 0 -8 -6 -17
-9 -21 -5 -3 3 -1 6 5 6 6 0 14 9 17 20 4 11 11 17 17 14 7 -4 8 -2 4 5 -6 9
-11 9 -22 0 -8 -6 -17 -9 -21 -5 -3 3 -2 6 4 6 6 0 13 14 17 31 4 21 10 28 18
23 10 -6 10 -4 2 7 -6 8 -10 31 -9 51 2 30 0 34 -10 25 -9 -9 -10 -14 -1 -20
7 -6 6 -7 -4 -4 -9 2 -14 14 -13 31 1 15 -2 24 -6 22 -4 -3 -6 6 -3 19 2 15 9
22 16 18 6 -4 5 1 -3 10 -14 18 -26 24 -17 8 3 -5 -2 -15 -12 -22 -15 -13 -16
-12 -3 4 7 9 10 17 6 17 -4 0 -1 8 6 17 12 15 12 16 -5 10 -16 -6 -17 -5 -7 7
8 10 9 16 1 21 -6 3 -7 11 -4 17 4 7 2 8 -4 4 -7 -4 -12 -2 -12 3 0 6 -10 11
-22 11 -18 0 -20 2 -8 9 8 6 19 7 25 4 5 -4 2 3 -8 14 -9 11 -16 22 -15 24 2
2 1 3 -1 2 -2 -2 -11 6 -18 17 -8 11 -19 17 -25 14 -6 -4 -8 2 -3 17 4 17 3
20 -3 10 -11 -15 -36 -6 -27 10 4 5 -2 6 -12 2 -10 -3 -15 -3 -11 1 4 5 1 14
-5 21 -9 10 -15 10 -26 1 -12 -9 -13 -8 -6 3 6 11 3 13 -13 9 -12 -4 -20 -3
-18 1 6 9 -30 41 -45 41 -5 0 -7 5 -3 12 4 7 3 8 -5 4 -6 -4 -9 -11 -6 -16 3
-5 0 -12 -6 -16 -7 -4 -9 -3 -5 4 3 6 -3 13 -14 17 -11 3 -20 11 -20 17 0 6 7
5 18 -3 14 -11 15 -11 5 1 -15 16 -46 23 -37 8 4 -6 1 -9 -7 -6 -8 3 -13 14
-11 24 2 11 0 15 -5 8 -4 -6 -19 -13 -31 -17 -23 -5 -23 -5 -7 13 11 12 13 20
5 25 -6 3 -10 3 -9 -2 4 -21 -4 -21 -47 -3 -53 23 -54 23 -54 9 0 -5 5 -7 12
-3 7 5 8 3 3 -6 -6 -10 -11 -9 -22 5 -8 12 -13 14 -13 6 0 -11 -3 -11 -15 -1
-13 11 -15 10 -9 -6 5 -18 5 -18 -6 -1 -12 19 -36 24 -24 5 4 -7 3 -8 -5 -4
-6 4 -9 17 -6 29 2 12 2 16 -1 10 -3 -7 -14 -13 -25 -13 -10 0 -19 6 -19 13 0
9 -2 9 -9 -1 -4 -8 -12 -14 -16 -14 -4 0 -12 6 -17 14 -8 10 -9 10 -5 -2 3
-11 -2 -16 -18 -16 -13 0 -21 4 -19 8 3 5 10 6 15 3 5 -4 6 2 2 11 -4 11 -8
13 -11 6 -2 -7 -8 -10 -13 -6 -5 3 -9 0 -9 -5 0 -6 -4 -11 -9 -11 -6 0 -8 10
-6 21 4 20 3 20 -14 5 -10 -9 -21 -13 -26 -9 -4 5 -5 3 -2 -3 4 -6 -5 -10 -23
-10 -16 0 -27 3 -24 8 3 4 0 8 -7 8 -6 0 -9 -8 -6 -20 3 -11 1 -18 -4 -14 -5
3 -9 11 -9 19 0 22 -30 26 -47 5 -17 -19 -33 -18 -33 3 0 7 4 6 10 -3 5 -8 10
-10 10 -5 0 6 -4 16 -9 24 -7 11 -10 9 -16 -8z m62 -16 c0 -8 -4 -12 -9 -9 -5
3 -6 10 -3 15 9 13 12 11 12 -6z m126 0 c-3 -9 -8 -14 -10 -11 -3 3 -2 9 2 15
9 16 15 13 8 -4z m-383 -5 c0 -5 -5 -10 -11 -10 -5 0 -7 5 -4 10 3 6 8 10 11
10 2 0 4 -4 4 -10z m504 -12 c-3 -4 -9 -8 -15 -8 -5 0 -9 4 -9 8 0 5 7 9 15 9
8 0 12 -4 9 -9z m30 -13 c-4 -8 -8 -15 -10 -15 -2 0 -4 7 -4 15 0 8 4 15 10
15 5 0 7 -7 4 -15z m181 -25 c3 -5 1 -10 -4 -10 -6 0 -11 5 -11 10 0 6 2 10 4
10 3 0 8 -4 11 -10z m380 -229 c-6 -6 -35 26 -35 39 0 6 -5 8 -12 4 -7 -5 -8
-3 -3 6 5 9 14 4 30 -16 13 -16 22 -31 20 -33z m39 -60 c3 -5 -1 -11 -9 -14
-9 -4 -12 -1 -8 9 6 16 10 17 17 5z m-881 -134 c-3 -4 -6 -7 -7 -5 -1 2 -8 12
-16 22 -14 18 -14 18 7 6 12 -8 19 -18 16 -23z m-43 8 c0 4 7 -1 15 -9 13 -12
20 -13 35 -4 10 7 17 15 15 18 -2 4 2 7 10 7 8 0 15 -5 15 -11 0 -6 10 -17 23
-25 21 -13 21 -13 7 4 -14 17 -13 18 3 12 10 -4 23 -7 28 -7 6 0 7 -6 3 -12
-4 -8 -3 -10 2 -5 5 5 9 13 9 18 0 12 20 12 21 -1 1 -5 2 -14 3 -20 0 -5 6
-10 12 -10 6 0 9 6 6 14 -4 11 0 13 16 10 12 -2 23 -8 25 -14 2 -6 9 -7 14 -4
7 5 8 2 4 -5 -6 -9 -13 -8 -27 5 -18 16 -19 16 -13 1 6 -17 13 -20 47 -20 9 0
17 -3 17 -8 0 -4 -8 -10 -17 -12 -14 -4 -13 -5 4 -6 12 0 23 2 26 7 2 4 2 2 1
-5 -2 -7 1 -15 7 -18 5 -4 6 -11 3 -17 -4 -5 4 -4 17 2 23 13 24 12 7 -7 -10
-11 -18 -24 -18 -29 0 -5 5 -2 10 6 8 12 10 11 10 -7 0 -12 10 -29 22 -37 12
-9 17 -16 10 -16 -6 0 -21 9 -32 20 -11 11 -20 16 -20 11 0 -5 7 -14 15 -21 8
-7 12 -16 9 -21 -3 -5 -2 -8 3 -7 4 2 8 -1 8 -7 0 -5 -5 -9 -12 -7 -12 3 -15
-4 -12 -24 0 -4 -5 -11 -13 -16 -9 -6 -5 -8 12 -4 14 3 19 3 12 0 -10 -5 -10
-9 0 -22 10 -12 10 -14 0 -8 -8 5 -15 -1 -20 -15 -8 -19 -9 -20 -15 -5 -4 10
-12 14 -18 11 -6 -4 -8 -13 -5 -21 3 -8 -1 -14 -10 -14 -9 0 -12 -5 -8 -12 5
-8 0 -7 -11 2 -17 14 -18 13 -11 -5 4 -11 4 -16 0 -12 -4 4 -12 2 -19 -3 -8
-7 -12 -5 -12 5 0 8 5 11 10 8 6 -3 7 -1 3 6 -5 8 -12 9 -20 2 -13 -11 -101
-9 -112 2 -4 4 -12 7 -18 7 -6 0 -4 -5 4 -10 12 -8 10 -10 -10 -10 -15 0 -32
-6 -39 -12 -9 -8 -11 -8 -8 -2 4 7 0 15 -9 18 -8 3 -12 2 -9 -4 3 -6 2 -10 -4
-10 -5 0 -15 8 -21 18 -10 15 -11 15 -7 -5 3 -15 1 -20 -9 -16 -8 3 -14 10
-14 16 0 6 -6 2 -14 -9 -8 -10 -18 -16 -22 -11 -4 4 -2 7 4 7 7 0 12 4 12 9 0
5 -9 7 -20 4 -11 -3 -20 -10 -20 -15 0 -5 -5 -6 -11 -2 -8 4 -7 9 2 15 7 4 10
11 6 15 -3 4 -13 1 -22 -6 -13 -11 -14 -10 -9 5 6 14 4 16 -6 10 -9 -5 -11 -4
-6 4 4 6 13 8 19 4 7 -4 5 4 -4 17 -16 26 -15 65 2 54 6 -3 5 -12 -3 -22 -12
-15 -11 -16 5 -3 10 8 14 18 9 25 -4 6 -7 20 -7 31 0 11 -3 23 -8 26 -13 9 2
51 15 43 6 -4 5 2 -2 15 -6 12 -16 19 -23 15 -9 -5 -9 -4 0 6 9 9 9 19 2 33
-8 14 -8 22 1 31 8 8 10 7 5 -5 -4 -10 -2 -20 4 -24 7 -4 8 0 4 11 -4 12 -3
15 5 10 8 -4 10 -2 6 8 -3 8 -12 17 -20 20 -8 3 -14 11 -14 18 0 8 3 9 8 3 4
-5 13 -11 21 -13 12 -3 12 -1 1 13 -7 9 -9 15 -4 14 25 -4 45 2 38 13 -4 7 -3
8 5 4 6 -4 9 -11 7 -15 -3 -4 1 -8 9 -8 8 0 13 3 10 5 -11 12 30 30 47 21 10
-5 18 -7 18 -4z m140 11 c0 -2 -9 -6 -20 -9 -11 -3 -18 -1 -14 4 5 9 34 13 34
5z m836 -83 c-2 -9 -8 -19 -14 -21 -15 -5 -16 14 -2 23 6 4 7 11 4 17 -4 6 -2
8 4 5 5 -4 9 -15 8 -24z m-1741 -93 c3 -6 -1 -7 -9 -4 -18 7 -21 14 -7 14 6 0
13 -4 16 -10z m625 6 c0 -3 -4 -8 -10 -11 -5 -3 -10 -1 -10 4 0 6 5 11 10 11
6 0 10 -2 10 -4z m-2 -91 c-3 -3 -9 2 -12 12 -6 14 -5 15 5 6 7 -7 10 -15 7
-18z m-617 -8 c-10 -9 -11 -8 -5 6 3 10 9 15 12 12 3 -3 0 -11 -7 -18z m-158
-121 c4 -10 1 -13 -8 -9 -8 3 -12 9 -9 14 7 12 11 11 17 -5z m1012 -6 c-3 -5
-12 -10 -18 -10 -7 0 -6 4 3 10 19 12 23 12 15 0z m39 -2 c-3 -4 -9 -8 -15 -8
-5 0 -9 4 -9 8 0 5 7 9 15 9 8 0 12 -4 9 -9z m-1177 -20 c-3 -8 -6 -5 -6 6 -1
11 2 17 5 13 3 -3 4 -12 1 -19z m-272 -96 c-6 -7 -34 11 -29 19 3 5 11 3 19
-4 7 -6 12 -13 10 -15z m2045 -102 c0 -5 -5 -10 -11 -10 -5 0 -7 5 -4 10 3 6
8 10 11 10 2 0 4 -4 4 -10z m-2125 -158 c-3 -3 -11 0 -18 7 -9 10 -8 11 6 5
10 -3 15 -9 12 -12z m205 -154 c0 -6 -6 -5 -15 2 -8 7 -15 14 -15 16 0 2 7 1
15 -2 8 -4 15 -11 15 -16z m2214 6 c3 -8 2 -12 -4 -9 -6 3 -10 10 -10 16 0 14
7 11 14 -7z m-760 -7 c-3 -8 2 -14 11 -14 9 0 14 6 11 12 -2 7 5 11 17 9 12
-1 26 -3 30 -3 5 -1 5 -7 1 -13 -5 -8 -1 -7 10 1 16 13 17 13 14 -5 -2 -14 2
-18 15 -16 16 3 17 0 6 -20 l-12 -23 23 20 23 20 -18 -28 c-17 -26 -17 -27 1
-20 17 6 18 5 4 -12 -13 -17 -13 -18 1 -13 13 5 16 1 12 -25 -2 -18 -4 -40 -4
-51 0 -18 0 -18 -14 0 -7 10 -11 23 -8 28 4 5 1 6 -5 2 -9 -5 -8 -12 0 -26 11
-16 8 -24 -15 -48 -19 -20 -24 -32 -17 -40 6 -6 8 -10 4 -8 -3 2 -15 -5 -26
-16 -11 -11 -26 -17 -34 -14 -7 3 -13 0 -11 -6 1 -6 -4 -13 -11 -15 -8 -3 -10
1 -6 14 5 14 4 15 -5 7 -7 -6 -14 -20 -16 -30 -2 -11 -4 -20 -4 -22 -1 -2 -6
0 -11 3 -8 5 -7 11 1 21 10 12 9 13 -5 8 -9 -3 -16 -10 -16 -15 0 -4 -10 -13
-21 -20 -15 -8 -19 -8 -15 0 4 6 1 12 -6 12 -34 4 -62 -2 -70 -13 -6 -10 -8
-10 -8 0 0 6 -4 12 -10 12 -5 0 -9 -3 -7 -7 1 -5 -3 -9 -8 -10 -5 0 -9 3 -8 8
4 12 -14 12 -21 0 -3 -5 -21 -5 -40 -1 -18 4 -41 3 -51 -2 -15 -9 -15 -7 -6
10 10 20 10 20 -19 6 -29 -15 -50 -12 -50 7 0 5 8 9 18 9 14 0 15 -2 2 -10 -9
-6 -10 -10 -3 -10 16 0 26 17 14 24 -5 3 -20 7 -33 8 -15 1 -24 8 -24 20 0 10
4 18 8 18 4 0 8 -4 8 -10 0 -5 4 -10 8 -10 4 0 8 9 8 19 0 11 -3 18 -6 16 -3
-2 -12 0 -20 6 -11 6 -12 9 -2 9 7 0 10 5 7 11 -11 16 -13 59 -4 53 5 -3 9 1
10 8 0 7 2 23 5 36 2 12 -1 22 -7 22 -5 0 -7 -5 -3 -12 5 -7 3 -8 -6 -3 -10 6
-9 11 5 22 17 12 17 13 2 13 -16 0 -16 2 -1 32 15 29 15 33 0 43 -13 10 -12
12 13 11 16 -1 27 -5 23 -11 -3 -5 4 -1 16 9 12 11 22 14 22 9 0 -6 7 -14 16
-17 8 -3 13 -2 10 3 -3 5 1 12 10 15 12 5 15 2 10 -9 -5 -14 -4 -14 16 -1 16
11 25 12 34 5 7 -6 19 -7 26 -3 17 11 40 11 56 0 7 -5 18 -3 29 5 11 10 14 10
9 2 -5 -9 0 -13 14 -13 14 0 19 4 14 13 -5 7 0 6 11 -3 10 -8 19 -15 20 -15 1
0 10 7 20 15 11 9 16 10 11 3 -4 -7 -3 -13 2 -13 6 0 12 7 16 15 3 8 8 15 10
15 3 0 3 -6 0 -13z m-404 -41 c0 -3 -4 -8 -10 -11 -5 -3 -10 -1 -10 4 0 6 5
11 10 11 6 0 10 -2 10 -4z m1187 -96 c10 -13 8 -16 -10 -17 -12 0 -17 1 -10 4
7 2 9 12 6 21 -6 18 -5 17 14 -8z m8 -75 c1 -28 -1 -32 -12 -23 -10 8 -10 14
-2 24 9 11 8 14 -2 15 -10 0 -11 2 -1 6 6 2 9 10 5 16 -3 7 -2 8 3 4 4 -4 9
-23 9 -42z m-1820 5 c3 -6 -1 -7 -9 -4 -18 7 -21 14 -7 14 6 0 13 -4 16 -10z
m1165 -37 c0 -3 -7 -3 -15 1 -8 3 -15 1 -15 -4 0 -6 -5 -10 -11 -10 -8 0 -8 4
1 14 10 13 40 12 40 -1z m-1159 -56 c-10 -9 -11 -8 -5 6 3 10 9 15 12 12 3 -3
0 -11 -7 -18z m-1 -23 c0 -8 -19 -13 -24 -6 -3 5 1 9 9 9 8 0 15 -2 15 -3z
m-10 -34 c0 -5 -2 -10 -4 -10 -3 0 -8 5 -11 10 -3 6 -1 10 4 10 6 0 11 -4 11
-10z m919 -6 c-6 -7 -17 -10 -26 -7 -17 7 -2 20 22 20 11 0 12 -4 4 -13z m868
-35 c-6 -10 -16 -19 -21 -19 -4 0 -3 7 4 15 6 8 9 19 5 24 -3 7 0 8 9 5 12 -5
13 -9 3 -25z m-1772 -47 c-3 -3 -11 0 -18 7 -9 10 -8 11 6 5 10 -3 15 -9 12
-12z m-15 -42 c0 -5 -2 -10 -4 -10 -3 0 -8 5 -11 10 -3 6 -1 10 4 10 6 0 11
-4 11 -10z m20 -73 c13 -5 13 -6 0 -6 -18 -1 -40 18 -40 34 0 5 6 3 13 -6 7
-9 19 -18 27 -22z m40 -71 c0 -3 -4 -8 -10 -11 -5 -3 -10 -1 -10 4 0 6 5 11
10 11 6 0 10 -2 10 -4z m1320 -116 c0 -5 -2 -10 -4 -10 -3 0 -8 5 -11 10 -3 6
-1 10 4 10 6 0 11 -4 11 -10z m-95 -20 c-3 -5 -1 -10 6 -10 7 0 10 -3 6 -6 -9
-9 -28 6 -22 17 4 5 8 9 11 9 3 0 2 -4 -1 -10z m-700 -42 c5 4 5 1 1 -6 -6
-10 -11 -10 -22 -1 -8 6 -14 14 -14 16 0 3 6 0 13 -6 8 -6 18 -7 22 -3z m599
4 c3 -5 -1 -9 -9 -9 -8 0 -12 4 -9 9 3 4 7 8 9 8 2 0 6 -4 9 -8z m-406 -27
c-3 -3 -9 2 -12 12 -6 14 -5 15 5 6 7 -7 10 -15 7 -18z m126 -1 c5 -13 4 -14
-7 -6 -8 7 -18 8 -22 4 -5 -4 -5 -1 -1 6 10 17 23 15 30 -4z"/>
<path d="M1434 1958 c-4 -7 -4 -10 1 -6 4 4 16 3 26 -3 11 -5 19 -7 19 -5 0 3
-9 10 -19 16 -15 7 -22 7 -27 -2z"/>
<path d="M1786 1658 c3 -5 10 -6 15 -3 13 9 11 12 -6 12 -8 0 -12 -4 -9 -9z"/>
<path d="M1870 921 c0 -6 4 -12 8 -15 5 -3 9 1 9 9 0 8 -4 15 -9 15 -4 0 -8
-4 -8 -9z"/>
<path d="M1341 846 c-9 -11 -9 -16 1 -22 7 -4 10 -4 6 1 -4 4 -3 14 3 22 6 7
9 13 6 13 -2 0 -10 -6 -16 -14z"/>
<path d="M1796 775 c-3 -9 -11 -13 -17 -9 -8 5 -9 3 -4 -5 6 -10 11 -9 23 3 9
8 13 18 10 21 -3 3 -8 -1 -12 -10z"/>
<path d="M1495 700 c3 -5 8 -10 11 -10 2 0 4 5 4 10 0 6 -5 10 -11 10 -5 0 -7
-4 -4 -10z"/>
<path d="M1096 2427 c3 -10 9 -15 12 -12 3 3 0 11 -7 18 -10 9 -11 8 -5 -6z"/>
<path d="M952 2398 c-7 -7 -12 -8 -12 -2 0 5 -5 2 -10 -6 -9 -13 -11 -13 -20
0 -6 9 -10 10 -10 3 0 -6 4 -14 9 -18 11 -6 61 15 61 27 0 11 -4 10 -18 -4z"/>
<path d="M2180 2325 c0 -2 6 -8 13 -14 10 -8 14 -7 14 2 0 8 -6 14 -14 14 -7
0 -13 -1 -13 -2z"/>
<path d="M740 2310 c-9 -6 -10 -10 -3 -10 6 0 15 5 18 10 8 12 4 12 -15 0z"/>
<path d="M684 2173 c-1 -13 -1 -23 0 -21 1 2 7 10 14 19 10 13 10 18 0 22 -8
3 -14 -5 -14 -20z"/>
<path d="M2440 2001 c0 -6 4 -13 10 -16 6 -3 7 1 4 9 -7 18 -14 21 -14 7z"/>
<path d="M203 1555 c-19 -21 -16 -27 7 -13 11 7 20 16 20 20 0 12 -14 9 -27
-7z"/>
<path d="M2271 1456 c-15 -16 -19 -26 -12 -31 7 -4 10 -1 9 7 -2 7 3 12 10 10
8 -1 11 2 8 7 -4 5 0 11 6 14 7 2 10 7 7 11 -3 3 -16 -5 -28 -18z"/>
<path d="M2222 1380 c7 -11 17 -20 22 -20 5 0 1 9 -9 20 -10 11 -20 20 -22 20
-2 0 2 -9 9 -20z"/>
<path d="M90 1316 c0 -2 7 -7 16 -10 8 -3 12 -2 9 4 -6 10 -25 14 -25 6z"/>
<path d="M81 1271 c-8 -5 -9 -11 -3 -15 5 -3 12 1 16 9 6 17 6 18 -13 6z"/>
<path d="M2495 1100 c-3 -6 1 -7 9 -4 18 7 21 14 7 14 -6 0 -13 -4 -16 -10z"/>
<path d="M2520 1006 c0 -2 7 -7 16 -10 8 -3 12 -2 9 4 -6 10 -25 14 -25 6z"/>
<path d="M678 983 c7 -3 16 -2 19 1 4 3 -2 6 -13 5 -11 0 -14 -3 -6 -6z"/>
<path d="M2523 975 c0 -8 4 -12 8 -9 4 2 10 -2 12 -8 4 -8 6 -9 6 -2 1 6 -5
17 -12 23 -10 8 -14 7 -14 -4z"/>
<path d="M785 349 c-4 -6 -5 -12 -2 -15 2 -3 7 2 10 11 7 17 1 20 -8 4z"/>
<path d="M2226 337 c3 -10 9 -15 12 -12 3 3 0 11 -7 18 -10 9 -11 8 -5 -6z"/>
<path d="M2067 269 c7 -7 15 -10 18 -7 3 3 -2 9 -12 12 -14 6 -15 5 -6 -5z"/>
<path d="M1000 250 c-9 -6 -10 -10 -3 -10 6 0 15 5 18 10 8 12 4 12 -15 0z"/>
<path d="M1436 212 c-3 -5 1 -9 9 -9 8 0 12 4 9 9 -3 4 -7 8 -9 8 -2 0 -6 -4
-9 -8z"/>
<path d="M1543 205 c0 -8 4 -12 9 -9 5 3 6 10 3 15 -9 13 -12 11 -12 -6z"/>
<path d="M1663 205 c0 -8 4 -12 9 -9 5 3 6 10 3 15 -9 13 -12 11 -12 -6z"/>
<path d="M1691 204 c0 -11 3 -14 6 -6 3 7 2 16 -1 19 -3 4 -6 -2 -5 -13z"/>
<path d="M1710 216 c0 -2 7 -7 16 -10 8 -3 12 -2 9 4 -6 10 -25 14 -25 6z"/>
</g>
</svg>
